<mxfile host="app.diagrams.net" modified="2024-07-21T20:52:24.204Z" agent="Mozilla/5.0 (X11; Linux x86_64) AppleWebKit/537.36 (KHTML, like Gecko) Chrome/126.0.0.0 Safari/537.36" etag="fn093YEEfeAPbtW93AAN" version="24.7.1" type="github">
  <diagram name="Page-1" id="Z3y-ajusadT1EQdbtNxy">
    <mxGraphModel dx="1150" dy="633" grid="1" gridSize="10" guides="1" tooltips="1" connect="1" arrows="1" fold="1" page="1" pageScale="1" pageWidth="827" pageHeight="1169" background="#000000" math="0" shadow="0">
      <root>
        <mxCell id="0" />
        <mxCell id="1" parent="0" />
        <mxCell id="Hp4P-O7bIVQksb0YK31X-1" value="financial instability" style="ellipse;whiteSpace=wrap;html=1;" vertex="1" parent="1">
          <mxGeometry x="340" y="20" width="120" height="80" as="geometry" />
        </mxCell>
        <mxCell id="Hp4P-O7bIVQksb0YK31X-2" value="&lt;div&gt;REASON 1&lt;/div&gt;delayed approvals of projects &amp;amp; other impacting factors for division of time in 2 parts - high availability &amp;amp; low availability of work" style="rounded=1;whiteSpace=wrap;html=1;" vertex="1" parent="1">
          <mxGeometry x="80" y="160" width="170" height="90" as="geometry" />
        </mxCell>
        <mxCell id="Hp4P-O7bIVQksb0YK31X-3" value="&lt;div&gt;REASON 2&lt;/div&gt;skill set gap among employees" style="rounded=1;whiteSpace=wrap;html=1;" vertex="1" parent="1">
          <mxGeometry x="540" y="160" width="120" height="60" as="geometry" />
        </mxCell>
        <mxCell id="Hp4P-O7bIVQksb0YK31X-4" value="voter-list" style="rounded=1;whiteSpace=wrap;html=1;" vertex="1" parent="1">
          <mxGeometry x="510" y="320" width="120" height="60" as="geometry" />
        </mxCell>
        <mxCell id="Hp4P-O7bIVQksb0YK31X-5" value="jain" style="rounded=1;whiteSpace=wrap;html=1;" vertex="1" parent="1">
          <mxGeometry x="740" y="320" width="120" height="60" as="geometry" />
        </mxCell>
        <mxCell id="Hp4P-O7bIVQksb0YK31X-6" value="" style="endArrow=classic;html=1;rounded=0;entryX=0.75;entryY=0;entryDx=0;entryDy=0;" edge="1" parent="1" source="Hp4P-O7bIVQksb0YK31X-1" target="Hp4P-O7bIVQksb0YK31X-2">
          <mxGeometry width="50" height="50" relative="1" as="geometry">
            <mxPoint x="400" y="360" as="sourcePoint" />
            <mxPoint x="450" y="310" as="targetPoint" />
          </mxGeometry>
        </mxCell>
        <mxCell id="Hp4P-O7bIVQksb0YK31X-7" value="" style="endArrow=classic;html=1;rounded=0;exitX=0.965;exitY=0.796;exitDx=0;exitDy=0;exitPerimeter=0;entryX=0.104;entryY=-0.022;entryDx=0;entryDy=0;entryPerimeter=0;" edge="1" parent="1" source="Hp4P-O7bIVQksb0YK31X-1" target="Hp4P-O7bIVQksb0YK31X-3">
          <mxGeometry width="50" height="50" relative="1" as="geometry">
            <mxPoint x="490" y="130" as="sourcePoint" />
            <mxPoint x="540" y="80" as="targetPoint" />
          </mxGeometry>
        </mxCell>
        <mxCell id="Hp4P-O7bIVQksb0YK31X-8" value="" style="endArrow=classic;html=1;rounded=0;exitX=0.326;exitY=1.047;exitDx=0;exitDy=0;exitPerimeter=0;" edge="1" parent="1" source="Hp4P-O7bIVQksb0YK31X-3" target="Hp4P-O7bIVQksb0YK31X-4">
          <mxGeometry width="50" height="50" relative="1" as="geometry">
            <mxPoint x="570" y="280" as="sourcePoint" />
            <mxPoint x="620" y="230" as="targetPoint" />
          </mxGeometry>
        </mxCell>
        <mxCell id="Hp4P-O7bIVQksb0YK31X-9" value="" style="endArrow=classic;html=1;rounded=0;exitX=1;exitY=1;exitDx=0;exitDy=0;entryX=0.076;entryY=-0.064;entryDx=0;entryDy=0;entryPerimeter=0;" edge="1" parent="1" source="Hp4P-O7bIVQksb0YK31X-3" target="Hp4P-O7bIVQksb0YK31X-5">
          <mxGeometry width="50" height="50" relative="1" as="geometry">
            <mxPoint x="690" y="290" as="sourcePoint" />
            <mxPoint x="740" y="240" as="targetPoint" />
          </mxGeometry>
        </mxCell>
        <mxCell id="Hp4P-O7bIVQksb0YK31X-11" value="Revised problems within voterlist" style="swimlane;fontStyle=0;childLayout=stackLayout;horizontal=1;startSize=30;horizontalStack=0;resizeParent=1;resizeParentMax=0;resizeLast=0;collapsible=1;marginBottom=0;whiteSpace=wrap;html=1;fillColor=#000000;fillStyle=solid;" vertex="1" parent="1">
          <mxGeometry x="490" y="440" width="190" height="510" as="geometry">
            <mxRectangle x="490" y="440" width="220" height="30" as="alternateBounds" />
          </mxGeometry>
        </mxCell>
        <mxCell id="Hp4P-O7bIVQksb0YK31X-12" value="1. we spent lets say 4 hours on image storage unprofessionaly even though it was a real world project &amp;amp; not a POC or internal project.&lt;div&gt;&lt;div&gt;&lt;br&gt;&lt;/div&gt;&lt;/div&gt;" style="text;strokeColor=none;fillColor=none;align=left;verticalAlign=middle;spacingLeft=4;spacingRight=4;overflow=hidden;points=[[0,0.5],[1,0.5]];portConstraint=eastwest;rotatable=0;whiteSpace=wrap;html=1;" vertex="1" parent="Hp4P-O7bIVQksb0YK31X-11">
          <mxGeometry y="30" width="190" height="90" as="geometry" />
        </mxCell>
        <mxCell id="Hp4P-O7bIVQksb0YK31X-13" value="2. same issue was addressed again with a more realistic approach(HDD storage) but still creating a debt for re-work. Not to mention again 4 hours must have or similar, spent.&lt;div&gt;&lt;br&gt;&lt;/div&gt;&lt;div&gt;3. But if we had the chance to implement the optimum or event the most fitting solution(lets say s3 bucket) then were we ready to implement in the appropriate time slot?&lt;/div&gt;" style="text;strokeColor=none;fillColor=none;align=left;verticalAlign=middle;spacingLeft=4;spacingRight=4;overflow=hidden;points=[[0,0.5],[1,0.5]];portConstraint=eastwest;rotatable=0;whiteSpace=wrap;html=1;" vertex="1" parent="Hp4P-O7bIVQksb0YK31X-11">
          <mxGeometry y="120" width="190" height="210" as="geometry" />
        </mxCell>
        <mxCell id="Hp4P-O7bIVQksb0YK31X-14" value="4. why need external help such as consultation for even simple projects such as voter-list. why was this not resolved internally." style="text;strokeColor=none;fillColor=none;align=left;verticalAlign=middle;spacingLeft=4;spacingRight=4;overflow=hidden;points=[[0,0.5],[1,0.5]];portConstraint=eastwest;rotatable=0;whiteSpace=wrap;html=1;" vertex="1" parent="Hp4P-O7bIVQksb0YK31X-11">
          <mxGeometry y="330" width="190" height="180" as="geometry" />
        </mxCell>
        <mxCell id="Hp4P-O7bIVQksb0YK31X-16" value="" style="endArrow=classic;html=1;rounded=0;entryX=0.43;entryY=-0.004;entryDx=0;entryDy=0;entryPerimeter=0;exitX=0.5;exitY=1;exitDx=0;exitDy=0;" edge="1" parent="1" source="Hp4P-O7bIVQksb0YK31X-4" target="Hp4P-O7bIVQksb0YK31X-11">
          <mxGeometry width="50" height="50" relative="1" as="geometry">
            <mxPoint x="410" y="430" as="sourcePoint" />
            <mxPoint x="450" y="380" as="targetPoint" />
          </mxGeometry>
        </mxCell>
        <mxCell id="Hp4P-O7bIVQksb0YK31X-17" value="abhishek delivered single handed. but still some aspects required consultations such as clousure table advice from external entities.&lt;br&gt;&lt;br&gt;&amp;amp; closure table is still a lacking fitting solution. a lot of hdd redundancy was introduced. while the optimum solution was already available in psql 8" style="rounded=1;whiteSpace=wrap;html=1;" vertex="1" parent="1">
          <mxGeometry x="770" y="440" width="190" height="200" as="geometry" />
        </mxCell>
        <mxCell id="Hp4P-O7bIVQksb0YK31X-18" value="" style="endArrow=classic;html=1;rounded=0;entryX=0.539;entryY=0.01;entryDx=0;entryDy=0;entryPerimeter=0;exitX=0.576;exitY=1.006;exitDx=0;exitDy=0;exitPerimeter=0;" edge="1" parent="1" source="Hp4P-O7bIVQksb0YK31X-5" target="Hp4P-O7bIVQksb0YK31X-17">
          <mxGeometry width="50" height="50" relative="1" as="geometry">
            <mxPoint x="800" y="440" as="sourcePoint" />
            <mxPoint x="850" y="390" as="targetPoint" />
          </mxGeometry>
        </mxCell>
        <mxCell id="Hp4P-O7bIVQksb0YK31X-19" value="water-lab" style="rounded=1;whiteSpace=wrap;html=1;" vertex="1" parent="1">
          <mxGeometry x="320" y="320" width="120" height="60" as="geometry" />
        </mxCell>
        <mxCell id="Hp4P-O7bIVQksb0YK31X-20" value="" style="endArrow=classic;html=1;rounded=0;entryX=0.597;entryY=-0.05;entryDx=0;entryDy=0;entryPerimeter=0;exitX=0;exitY=1;exitDx=0;exitDy=0;" edge="1" parent="1" source="Hp4P-O7bIVQksb0YK31X-3" target="Hp4P-O7bIVQksb0YK31X-19">
          <mxGeometry width="50" height="50" relative="1" as="geometry">
            <mxPoint x="500" y="330" as="sourcePoint" />
            <mxPoint x="550" y="280" as="targetPoint" />
          </mxGeometry>
        </mxCell>
        <mxCell id="Hp4P-O7bIVQksb0YK31X-26" value="Due to lack of skillset or daily practice,&amp;nbsp; developers had to accept a large amount of data inflow in their knowledgebase so that deadlines could be met. This was a failure because backend is not something that you can learn in a short time period.&lt;div&gt;&lt;br&gt;&lt;/div&gt;&lt;div&gt;for example these all are a lot to take in a short time period --&lt;/div&gt;&lt;div&gt;1. transaction&lt;/div&gt;&lt;div&gt;2. db relationships&lt;/div&gt;&lt;div&gt;3.authorization &amp;amp; blacklisting&lt;/div&gt;&lt;div&gt;4. sensible error handling&lt;/div&gt;&lt;div&gt;5. non-blocking api calls&lt;/div&gt;&lt;div&gt;6. migrations, seeding &amp;amp; pitfalls of migrations &amp;amp; handling overseeding&lt;/div&gt;&lt;div&gt;7. streams &amp;amp; queues&lt;/div&gt;&lt;div&gt;&lt;br&gt;&lt;/div&gt;" style="rounded=1;whiteSpace=wrap;html=1;" vertex="1" parent="1">
          <mxGeometry x="100" y="440" width="250" height="340" as="geometry" />
        </mxCell>
        <mxCell id="Hp4P-O7bIVQksb0YK31X-27" value="" style="endArrow=classic;html=1;rounded=0;exitX=0.104;exitY=0.978;exitDx=0;exitDy=0;exitPerimeter=0;entryX=0.443;entryY=-0.004;entryDx=0;entryDy=0;entryPerimeter=0;" edge="1" parent="1" source="Hp4P-O7bIVQksb0YK31X-19" target="Hp4P-O7bIVQksb0YK31X-26">
          <mxGeometry width="50" height="50" relative="1" as="geometry">
            <mxPoint x="320" y="430" as="sourcePoint" />
            <mxPoint x="370" y="380" as="targetPoint" />
          </mxGeometry>
        </mxCell>
      </root>
    </mxGraphModel>
  </diagram>
</mxfile>
